<mxfile host="app.diagrams.net" agent="Mozilla/5.0 (X11; Linux x86_64) AppleWebKit/537.36 (KHTML, like Gecko) Chrome/120.0.0.0 YaBrowser/24.1.0.0 Safari/537.36" version="28.2.5">
  <diagram id="Ta_qs10KrUM1-YHtu8ch" name="OWASP WSTG">
    <mxGraphModel dx="1181" dy="642" grid="1" gridSize="10" guides="1" tooltips="1" connect="1" arrows="1" fold="1" page="1" pageScale="1" pageWidth="1654" pageHeight="1169" math="0" shadow="0">
      <root>
        <mxCell id="0" />
        <mxCell id="1" parent="0" />
        <mxCell id="eCl3sA1oc6k5Cc1LExgh-1" value="&lt;h1 style=&quot;margin-top: 0px;&quot;&gt;WSTG-INFO-01&lt;/h1&gt;&lt;h1 style=&quot;margin-top: 0px;&quot;&gt;Conduct Search Engine Discovery Reconnaissance for Information Leakage&lt;/h1&gt;&lt;p&gt;&lt;b&gt;Direct&lt;/b&gt; and &lt;b&gt;indirect&lt;/b&gt; elements to search engine discovery and reconnaissance:&lt;br&gt;&lt;/p&gt;&lt;p&gt;&lt;b&gt;Direct&lt;/b&gt; -&amp;nbsp;searching the indexes and the associated content from caches.&lt;/p&gt;&lt;p&gt;&lt;b&gt;Indirect&lt;/b&gt; -&amp;nbsp;learning sensitive design and configuration information by searching forums, newsgroups, and tendering websites.&lt;/p&gt;&lt;p&gt;Use&amp;nbsp;robots.txt,&amp;nbsp;HTML meta tags,&amp;nbsp;authentication,&amp;nbsp;search engines tools to avoid content from indexing.&lt;/p&gt;&lt;hr id=&quot;null&quot;&gt;&lt;p&gt;Identify what sensitive design and configuration information of the application, system, or organization is exposed directly (on the organization’s website) or indirectly (via third-party services).&lt;/p&gt;&lt;hr id=&quot;null&quot;&gt;&lt;p&gt;Use a search engine to search for potentially sensitive information.&lt;br&gt;&lt;/p&gt;&lt;p&gt;Use different&amp;nbsp;search engines to generate results:&amp;nbsp;&lt;a href=&quot;https://www.baidu.com/&quot; style=&quot;background-color: transparent;&quot;&gt;Baidu&lt;/a&gt;&lt;span style=&quot;background-color: transparent;&quot;&gt;,&amp;nbsp;&lt;/span&gt;&lt;span style=&quot;background-color: transparent;&quot;&gt;&lt;a href=&quot;https://www.bing.com/&quot;&gt;Bing&lt;/a&gt;, &lt;a href=&quot;https://commoncrawl.org/&quot;&gt;Common Crawl&lt;/a&gt;, &lt;a href=&quot;https://duckduckgo.com/&quot;&gt;DuckDuckGo&lt;/a&gt;, &lt;a href=&quot;https://www.google.com/&quot;&gt;Google&lt;/a&gt;, &lt;a href=&quot;https://archive.org/web/&quot;&gt;Web Archive&lt;/a&gt;, &lt;a href=&quot;https://www.startpage.com/&quot;&gt;StartPage&lt;/a&gt;, &lt;a href=&quot;https://www.shodan.io/&quot;&gt;Shodan&lt;/a&gt;.&lt;/span&gt;&lt;/p&gt;&lt;p&gt;&lt;span style=&quot;background-color: transparent;&quot;&gt;Use&amp;nbsp;&lt;/span&gt;&lt;span style=&quot;background-color: transparent;&quot;&gt;Search Operators (&lt;/span&gt;&lt;span style=&quot;background-color: transparent;&quot;&gt;&lt;i&gt;operator:query&lt;/i&gt;&lt;/span&gt;&lt;span style=&quot;background-color: transparent;&quot;&gt;):&amp;nbsp;&lt;/span&gt;&lt;span style=&quot;background-color: transparent;&quot;&gt;&lt;i&gt;site&lt;/i&gt;,&amp;nbsp;&lt;/span&gt;&lt;span style=&quot;background-color: transparent;&quot;&gt;&lt;i&gt;inurl&lt;/i&gt;,&amp;nbsp;&lt;/span&gt;&lt;span style=&quot;background-color: transparent;&quot;&gt;&lt;i&gt;intitle&lt;/i&gt;,&amp;nbsp;&lt;/span&gt;&lt;span style=&quot;background-color: transparent;&quot;&gt;&lt;i&gt;intext&lt;/i&gt;,&amp;nbsp;&lt;/span&gt;&lt;span style=&quot;background-color: transparent;&quot;&gt;&lt;i&gt;inbody&lt;/i&gt;,&amp;nbsp;&lt;/span&gt;&lt;span style=&quot;background-color: transparent;&quot;&gt;&lt;i&gt;filetype,&amp;nbsp;&lt;/i&gt;&lt;/span&gt;&lt;span style=&quot;background-color: transparent;&quot;&gt;&lt;i&gt;cache&lt;/i&gt;&lt;/span&gt;&lt;span style=&quot;background-color: transparent;&quot;&gt;.&lt;/span&gt;&lt;/p&gt;&lt;p&gt;&lt;span style=&quot;background-color: transparent;&quot;&gt;Use&amp;nbsp;&lt;a href=&quot;https://www.exploit-db.com/google-hacking-database&quot;&gt;Google Hacking Database&lt;/a&gt;.&lt;/span&gt;&lt;/p&gt;&lt;hr id=&quot;null&quot;&gt;&lt;p&gt;Carefully consider the sensitivity of design and configuration information before it is posted online.&lt;/p&gt;&lt;p&gt;Periodically review the sensitivity of existing design and configuration information that is posted online.&lt;/p&gt;" style="text;html=1;overflow=hidden;rounded=0;strokeColor=default;whiteSpace=wrap;fontFamily=Times New Roman;" parent="1" vertex="1">
          <mxGeometry x="40" y="80" width="400" height="620" as="geometry" />
        </mxCell>
        <mxCell id="oaayevychgkSF5dlrHyh-2" value="&lt;h1 style=&quot;margin-top: 0px;&quot;&gt;WSTG-INFO-02&lt;/h1&gt;&lt;h1 style=&quot;margin-top: 0px;&quot;&gt;Fingerprint Web Server&lt;/h1&gt;&lt;p&gt;Web server fingerprinting is the task of identifying the type and version of web server that a target is running on.&lt;br&gt;&lt;/p&gt;&lt;hr id=&quot;null&quot;&gt;&lt;p&gt;Determine the version and type of a running web server to enable further discovery of any known vulnerabilities.&lt;/p&gt;&lt;hr id=&quot;null&quot;&gt;&lt;p&gt;&lt;b&gt;Banner Grabbing&lt;/b&gt;:&lt;/p&gt;&lt;p&gt;A banner grab is performed by sending an HTTP request to the web server and examining its response header (&lt;i&gt;Server: Apache/2.4.41 (Unix)&lt;/i&gt;, &lt;i&gt;Server: nginx/1.17.3&lt;/i&gt;,&amp;nbsp;&lt;span style=&quot;background-color: transparent;&quot;&gt;&lt;i&gt;Server: lighttpd/1.4.54&lt;/i&gt;&lt;/span&gt;&lt;span style=&quot;background-color: transparent;&quot;&gt;).&lt;/span&gt;&lt;/p&gt;&lt;p&gt;In cases where the server information is obscured, testers may guess the type of server based on the ordering of the header fields, but this method is not definite.&lt;br&gt;&lt;/p&gt;&lt;p&gt;&lt;b&gt;Sending Malformed Requests&lt;/b&gt;:&lt;br&gt;&lt;/p&gt;&lt;p&gt;Web servers may be identified by examining their error responses, and in the cases where they have not been customized, their default error pages.&lt;br&gt;&lt;/p&gt;&lt;p&gt;As default error pages offer many differentiating factors between types of web servers, their examination can be an effective method for fingerprinting even when server header fields are obscured.&lt;/p&gt;&lt;p&gt;&lt;b&gt;Using Automated Scanning Tools&lt;/b&gt;:&lt;/p&gt;&lt;p&gt;Automated tools send other more server-specific probes,&amp;nbsp;&lt;span style=&quot;background-color: transparent;&quot;&gt;can compare responses from web servers much faster than manual testing, and utilize large databases of known responses to attempt server identification (&lt;/span&gt;&lt;a style=&quot;background-color: transparent;&quot; href=&quot;https://toolbar.netcraft.com/site_report&quot;&gt;NetCraft&lt;/a&gt;&lt;span style=&quot;background-color: transparent;&quot;&gt;, &lt;/span&gt;&lt;a style=&quot;background-color: transparent;&quot; href=&quot;https://github.com/sullo/nikto&quot;&gt;Nikto&lt;/a&gt;&lt;span style=&quot;background-color: transparent;&quot;&gt;, &lt;/span&gt;&lt;a style=&quot;background-color: transparent;&quot; href=&quot;https://nmap.org/&quot;&gt;Nmap&lt;/a&gt;&lt;span style=&quot;background-color: transparent;&quot;&gt;, &lt;/span&gt;&lt;a style=&quot;background-color: transparent;&quot; href=&quot;https://nmap.org/zenmap/&quot;&gt;Zenmap&lt;/a&gt;&lt;span style=&quot;background-color: transparent;&quot;&gt;).&lt;/span&gt;&lt;/p&gt;&lt;hr id=&quot;null&quot;&gt;&lt;p&gt;&lt;span style=&quot;background-color: transparent;&quot;&gt;Obscuring web server information in headers (&lt;/span&gt;&lt;span style=&quot;background-color: transparent;&quot;&gt;&lt;a href=&quot;https://httpd.apache.org/docs/current/mod/mod_headers.html&quot;&gt;Apache’s mod_headers module&lt;/a&gt;&lt;/span&gt;&lt;span style=&quot;background-color: transparent;&quot;&gt;).&lt;/span&gt;&lt;/p&gt;&lt;p&gt;&lt;span style=&quot;background-color: transparent;&quot;&gt;&lt;/span&gt;&lt;/p&gt;&lt;p&gt;Using a hardened reverse proxy server to create an additional layer of security between the web server and the Internet.&lt;/p&gt;&lt;div&gt;&lt;div&gt;Ensuring that web servers are kept up-to-date with the latest software and security patches.&lt;/div&gt;&lt;/div&gt;" style="text;html=1;overflow=hidden;rounded=0;strokeColor=default;whiteSpace=wrap;fontFamily=Times New Roman;" parent="1" vertex="1">
          <mxGeometry x="40" y="700" width="400" height="700" as="geometry" />
        </mxCell>
        <mxCell id="oaayevychgkSF5dlrHyh-3" value="&lt;h1 style=&quot;margin-top: 0px;&quot;&gt;WSTG-INFO-03&lt;/h1&gt;&lt;h1 style=&quot;margin-top: 0px;&quot;&gt;Review Webserver Metafiles for Information Leakage&lt;/h1&gt;&lt;p&gt;Testing various metadata files for information leakage of the web application’s path(s), or functionality.&lt;/p&gt;&lt;hr id=&quot;null&quot;&gt;&lt;p&gt;Identify hidden or obfuscated paths and functionality through the analysis of metadata files.&lt;br&gt;&lt;/p&gt;&lt;p&gt;Extract and map other information that could lead to better understanding of the systems at hand.&lt;br&gt;&lt;/p&gt;&lt;hr id=&quot;null&quot;&gt;&lt;p&gt;&lt;b&gt;Robots&lt;/b&gt;:&lt;br&gt;&lt;/p&gt;&lt;p&gt;Web Spiders, Robots, or Crawlers retrieve a web page and then recursively traverse hyperlinks to retrieve further web content.&lt;br&gt;&lt;/p&gt;&lt;p&gt;Their accepted behavior is specified by the &lt;a href=&quot;https://www.robotstxt.org/&quot;&gt;Robots Exclusion Protocol&lt;/a&gt; of the robots.txt file in the web root directory (but robots can ignore Disallow directives from robots.txt also).&lt;/p&gt;&lt;p&gt;&lt;b&gt;META Tags&lt;/b&gt;:&lt;br&gt;&lt;/p&gt;&lt;p&gt;&amp;lt;META&amp;gt; tags are located within the HEAD section of each HTML document and should be consistent across a web site in the event that the robot/spider/crawler start point does not begin from a document link other than webroot.&lt;br&gt;&lt;/p&gt;&lt;p&gt;Robots META Tag - &lt;i&gt;&amp;lt;META NAME=&quot;ROBOTS&quot; CONTENT=&quot;(NO)INDEX, (NO)FOLLOW&quot;&amp;gt;&lt;/i&gt;.&lt;br&gt;&lt;/p&gt;&lt;p&gt;&lt;b&gt;Miscellaneous META Information Tags&lt;/b&gt;:&lt;br&gt;&lt;/p&gt;&lt;p&gt;Organizations often embed informational META tags in web content to support various technologies such as screen readers, social networking previews, search engine indexing, etc.&lt;/p&gt;&lt;p&gt;&lt;i&gt;&amp;lt;meta property=&quot;og:url&quot; content=&quot;https://www.whitehouse.gov/&quot; /&amp;gt;&lt;br&gt;&amp;lt;meta name=&quot;twitter:card&quot; content=&quot;summary_large_image&quot; /&amp;gt;&lt;br&gt;&amp;lt;meta name=&quot;twitter:site&quot; content=&quot;@whitehouse&quot; /&amp;gt;&lt;br&gt;&lt;/i&gt;&lt;/p&gt;&lt;p&gt;Such meta-information can be of value to testers in identifying technologies used, and additional paths/functionality to explore and test.&lt;br&gt;&lt;/p&gt;&lt;p&gt;&lt;b&gt;Sitemaps&lt;/b&gt;:&lt;br&gt;&lt;/p&gt;&lt;p&gt;A sitemap.xml is a file where a developer or organization can provide information about the pages, videos, and other files offered by the site or application, and the relationship between them.&lt;br&gt;&lt;/p&gt;&lt;p&gt;Search engines can use this file to more intelligently explore your site. Testers can use sitemap.xml files to learn more about the site or application to explore it more completely.&lt;br&gt;&lt;/p&gt;&lt;p&gt;&lt;b&gt;Security TXT&lt;/b&gt;:&lt;br&gt;&lt;/p&gt;&lt;p&gt;Security.txt is a &lt;a href=&quot;https://securitytxt.org/&quot;&gt;proposed standard&lt;/a&gt; which allows websites to define security policies and contact details.&lt;br&gt;&lt;/p&gt;&lt;p&gt;The file may be present either in the root of the webserver or in the .well-known/ directory.&lt;br&gt;&lt;/p&gt;&lt;p&gt;&lt;b&gt;Humans TXT&lt;/b&gt;:&lt;br&gt;&lt;/p&gt;&lt;p&gt;&lt;a href=&quot;https://humanstxt.org/&quot;&gt;humans.txt&lt;/a&gt; is an initiative for knowing the people behind a website.&lt;br&gt;&lt;/p&gt;&lt;p&gt;&lt;b&gt;Other .well-known Information Sources&lt;/b&gt;:&lt;br&gt;&lt;/p&gt;&lt;p&gt;There are other &lt;a href=&quot;https://www.iana.org/assignments/well-known-uris/well-known-uris.xhtml&quot;&gt;RFCs&lt;/a&gt; and &lt;a href=&quot;https://en.wikipedia.org/wiki/Well-known_URI#List_of_well-known_URIs&quot;&gt;Internet drafts&lt;/a&gt; which suggest standardized uses of files within the .well-known/ directory.&lt;br&gt;&lt;/p&gt;&lt;p&gt;Tools:&amp;nbsp;Browser,&amp;nbsp;curl,&amp;nbsp;wget,&amp;nbsp;Burp Suite,&amp;nbsp;ZAP.&lt;/p&gt;" style="text;html=1;overflow=hidden;rounded=0;strokeColor=default;whiteSpace=wrap;fontFamily=Times New Roman;" parent="1" vertex="1">
          <mxGeometry x="40" y="1400" width="400" height="1120" as="geometry" />
        </mxCell>
        <mxCell id="jR8E7OnR5_9fku_goPyS-1" value="&lt;h1 style=&quot;margin-top: 0px;&quot;&gt;WSTG-INFO-04&lt;/h1&gt;&lt;h1 style=&quot;margin-top: 0px;&quot;&gt;Enumerate Applications on Webserver&lt;/h1&gt;&lt;p&gt;It is not uncommon to have multiple web sites or applications whose symbolic names resolve to the same IP address.&lt;br&gt;&lt;/p&gt;&lt;hr id=&quot;null&quot;&gt;&lt;p&gt;Enumerate the applications within scope that exist on a web server.&lt;/p&gt;&lt;hr id=&quot;null&quot;&gt;&lt;p&gt;&lt;b&gt;Different Base URL&lt;/b&gt;:&lt;/p&gt;&lt;p&gt;The URLs &lt;i&gt;http://www.example.com/&lt;b&gt;url1&lt;/b&gt;&lt;/i&gt;, &lt;i&gt;http://www.example.com/&lt;b&gt;url2&lt;/b&gt;&lt;/i&gt; and &lt;i&gt;http://www.example.com/&lt;b&gt;url3&lt;/b&gt;&lt;/i&gt; referred to different applications.&lt;br&gt;&lt;/p&gt;&lt;p&gt;Use vulnerability scanners (it may be possible to spot applications via&amp;nbsp;directory browsing at&amp;nbsp;mis-configured&amp;nbsp;web server).&lt;br&gt;&lt;/p&gt;&lt;p&gt;Use the &lt;i&gt;site&lt;/i&gt; operator of search engines (if the application is referenced by other web pages or spidered and indexed by web search engines).&lt;/p&gt;&lt;p&gt;Use&amp;nbsp;dictionary-style searching&amp;nbsp;(&quot;intelligent guessing&quot;) to check&amp;nbsp;likely candidates&amp;nbsp;for non-published applications (&lt;i&gt;https://www.example.com/webmail&lt;/i&gt;, &lt;i&gt;https://webmail.example.com/&lt;/i&gt;, &lt;i&gt;https://mail.example.com/&lt;/i&gt; for &lt;i&gt;https://www.example.com&lt;/i&gt;).&lt;/p&gt;&lt;p&gt;&lt;b style=&quot;background-color: transparent;&quot;&gt;Non-standard Ports&lt;/b&gt;&lt;span style=&quot;background-color: transparent;&quot;&gt;:&lt;/span&gt;&lt;br&gt;&lt;/p&gt;&lt;p&gt;Applications may be hosted at diifferent from standart HTTP(S) 80 and 443 ports -&amp;nbsp;&lt;i&gt;http://www.example.com:&lt;b&gt;20000&lt;/b&gt;&lt;/i&gt;.&lt;/p&gt;&lt;p&gt;Use &lt;i&gt;nmap –Pn –sT –sV –p0-65535 192.168.1.100&lt;/i&gt;.&lt;/p&gt;&lt;p&gt;Use&amp;nbsp;vulnerability scanners (check the ability to identify HTTP[S]).&lt;/p&gt;&lt;p&gt;&lt;b&gt;Virtual Hosts&lt;/b&gt;:&lt;br&gt;&lt;/p&gt;&lt;p&gt;The IP address 192.168.1.100 might be associated to DNS names &lt;i&gt;www.example.com&lt;/i&gt;, &lt;i&gt;&lt;b&gt;helpdesk&lt;/b&gt;.example.com&lt;/i&gt;, &lt;i&gt;&lt;b&gt;webmail&lt;/b&gt;.example.com&lt;/i&gt;.&lt;br&gt;&lt;/p&gt;&lt;p&gt;DNS Zone Transfers (&lt;i&gt;host -t ns domain.com&lt;/i&gt; -&amp;gt; &lt;i&gt;host -l domain.com ns.domain.com&lt;/i&gt;).&lt;br&gt;&lt;/p&gt;&lt;p&gt;DNS Inverse Queries (&lt;i&gt;dig -x 192.0.2.1&lt;/i&gt;).&lt;/p&gt;&lt;p&gt;Reverse-IP Services (&lt;a href=&quot;https://www.domaintools.com/reverse-ip/&quot;&gt;Domain Tools Reverse IP&lt;/a&gt;, &lt;a href=&quot;https://www.dnsstuff.com/&quot;&gt;DNSstuff&lt;/a&gt;, &lt;a href=&quot;https://web.archive.org/web/20190515092354/http://www.net-square.com/mspawn.html&quot;&gt;Net Square&lt;/a&gt;).&lt;br&gt;&lt;/p&gt;&lt;p&gt;Googling (see&amp;nbsp;&lt;span style=&quot;background-color: transparent;&quot;&gt;&lt;b&gt;WSTG-INFO-01&lt;/b&gt;&lt;/span&gt;&lt;span style=&quot;background-color: transparent;&quot;&gt;).&lt;/span&gt;&lt;/p&gt;&lt;p&gt;&lt;span style=&quot;background-color: transparent;&quot;&gt;Tools: host, nslookup, dig, s&lt;/span&gt;&lt;span style=&quot;background-color: transparent;&quot;&gt;earch engines,&amp;nbsp;&lt;/span&gt;&lt;span style=&quot;background-color: transparent;&quot;&gt;Specialized DNS-related web-based search services, &lt;a href=&quot;https://nmap.org/&quot;&gt;Nmap&lt;/a&gt;, &lt;a href=&quot;https://www.tenable.com/products/nessus&quot;&gt;Nessus&lt;/a&gt;, &lt;a href=&quot;https://www.cirt.net/nikto2&quot;&gt;Nikto&lt;/a&gt;.&lt;/span&gt;&lt;/p&gt;" style="text;html=1;overflow=hidden;rounded=0;strokeColor=default;whiteSpace=wrap;fontFamily=Times New Roman;" parent="1" vertex="1">
          <mxGeometry x="40" y="2520" width="400" height="780" as="geometry" />
        </mxCell>
        <mxCell id="jR8E7OnR5_9fku_goPyS-2" value="&lt;h1 style=&quot;margin-top: 0px;&quot;&gt;WSTG-INFO-05&lt;/h1&gt;&lt;h1 style=&quot;margin-top: 0px;&quot;&gt;Review Webpage Content for Information Leakage&lt;/h1&gt;&lt;p&gt;Comments and metadata review should be done in order to determine if any information is being leaked.&lt;br&gt;&lt;/p&gt;&lt;p&gt;Similar to the comments and metadata in HTML code, many programmers also hardcod sensitive information in JavaScript variables on the front-end.&lt;br&gt;&lt;/p&gt;&lt;hr id=&quot;null&quot;&gt;&lt;p&gt;Review webpage comments and metadata to find any information leakage.&lt;br&gt;&lt;/p&gt;&lt;p&gt;Gather JavaScript files and review the JS code to better understand the application and to find any information leakage.&lt;br&gt;&lt;/p&gt;&lt;p&gt;Identify if source map files or other front-end debug files exist.&lt;/p&gt;&lt;hr id=&quot;null&quot;&gt;&lt;p&gt;&lt;b&gt;Review webpage comments and metadata&lt;/b&gt;:&lt;br&gt;&lt;/p&gt;&lt;p&gt;Check HTML source code for comments containing sensitive information (&quot;&lt;i&gt;&amp;lt;!--&lt;/i&gt;&quot;).&lt;/p&gt;&lt;p&gt;Check HTML version information for valid version numbers and Data Type Definition (DTD) URLs (&lt;i&gt;strict.dtd&lt;/i&gt;, &lt;i&gt;loose.dtd&lt;/i&gt;, &lt;i&gt;frameset.dtd&lt;/i&gt;).&lt;/p&gt;&lt;p&gt;CHeck META tags (profiling info, not &lt;a href=&quot;https://www.w3.org/WAI/standards-guidelines/wcag/&quot;&gt;WCAG&lt;/a&gt; compliant).&lt;/p&gt;&lt;p&gt;&lt;b&gt;Identifying JavaScript Code and Gathering JavaScript Files&lt;/b&gt;:&lt;br&gt;&lt;/p&gt;&lt;p&gt;Check JavaScript source code in &lt;i&gt;&amp;lt;script&amp;gt;&lt;/i&gt; tag block.&lt;/p&gt;&lt;p&gt;identify external JavaScript files to review the code (&quot;&lt;i&gt;*.js&lt;/i&gt;&quot;).&lt;br&gt;&lt;/p&gt;&lt;p&gt;Check JavaScript source code for any sensitive information leaks.&lt;br&gt;&lt;/p&gt;&lt;p&gt;&lt;b&gt;Identifying Source Map Files&lt;/b&gt;:&lt;br&gt;&lt;/p&gt;&lt;p&gt;Testers can also find source map files by adding the “&lt;i&gt;.map&lt;/i&gt;” extension after the extension of each external JavaScript file.&lt;br&gt;&lt;/p&gt;&lt;p&gt;Tools: &lt;a href=&quot;https://www.gnu.org/software/wget/wget.html&quot;&gt;wget&lt;/a&gt;, &lt;a href=&quot;https://curl.haxx.se/&quot;&gt;curl&lt;/a&gt;, Browser DevTools, &lt;a href=&quot;https://portswigger.net/burp&quot;&gt;Burp Suite&lt;/a&gt;, &lt;a href=&quot;https://github.com/tomnomnom/waybackurls&quot;&gt;Wayback URLs&lt;/a&gt;, &lt;a href=&quot;https://github.com/ozguralp/gmapsapiscanner/&quot;&gt;Google Maps API Scanner&lt;/a&gt;, &lt;a href=&quot;https://github.com/streaak/keyhacks&quot;&gt;KeyHacks&lt;/a&gt;.&lt;/p&gt;" style="text;html=1;overflow=hidden;rounded=0;strokeColor=default;whiteSpace=wrap;fontFamily=Times New Roman;" parent="1" vertex="1">
          <mxGeometry x="40" y="3300" width="400" height="700" as="geometry" />
        </mxCell>
        <mxCell id="kxqWSQLsrTnDQ2H8gNHa-1" value="&lt;h1 style=&quot;margin-top: 0px;&quot;&gt;WSTG-INFO-06&lt;/h1&gt;&lt;h1 style=&quot;margin-top: 0px;&quot;&gt;Identify Application Entry Points&lt;/h1&gt;&lt;p&gt;Identify and map out areas within the application that should be investigated once enumeration and mapping have been completed.&lt;/p&gt;&lt;hr id=&quot;null&quot;&gt;&lt;p&gt;Identify possible entry and injection points through request and response analysis.&lt;br&gt;&lt;/p&gt;&lt;hr id=&quot;null&quot;&gt;&lt;p&gt;Pay attention to all HTTP requests as well as every parameter and form field that is passed to the application.&lt;br&gt;&lt;/p&gt;&lt;p&gt;Use a tool such as an intercepting proxy&amp;nbsp;to see the parameters sent in the body of requests such as a POST request.&lt;br&gt;&lt;/p&gt;&lt;p&gt;Make special note of any hidden form fields that are being passed to the application, as these usually contain sensitive information.&lt;br&gt;&lt;/p&gt;&lt;p&gt;Make a spreadsheet with the research results.&lt;/p&gt;&lt;p&gt;The spreadsheet should include the page requested,&amp;nbsp;the interesting parameters, the type of request,&amp;nbsp;if access is authenticated/unauthenticated, if TLS is used, if it’s part of a multi-step process, if WebSockers are used, and any other relevant notes.&lt;br&gt;&lt;/p&gt;&lt;p&gt;&lt;b&gt;Requests&lt;/b&gt;:&lt;/p&gt;&lt;p&gt;Identify where new cookies are set (&lt;i&gt;Set-Cookie&lt;/i&gt; header), modified, or added to.&lt;br&gt;&lt;/p&gt;&lt;p&gt;Identify where there are any redirects (3xx HTTP status code), 400 status codes, in particular 403 Forbidden, and 500 internal server errors during normal responses (i.e., unmodified requests).&lt;/p&gt;&lt;p&gt;Also note where any interesting headers are used (Server: BIG-IP).&lt;br&gt;&lt;/p&gt;&lt;p&gt;Black-Box Testing (analyzing only requests and responses).&lt;br&gt;&lt;/p&gt;&lt;p&gt;Gray-Box Testing (contact with the application developers to identify any functions that would accept or expect user input and how they are formatted).&lt;br&gt;&lt;/p&gt;&lt;p&gt;&lt;b&gt;OWASP Attack Surface Detector&lt;/b&gt;:&lt;br&gt;&lt;/p&gt;&lt;p&gt;This tool investigates the source code and uncovers the endpoints of a web application, the parameters these endpoints accept, and the data type of those parameters (more info than from spider).&lt;br&gt;&lt;/p&gt;&lt;p&gt;Available as a CLI-tool and as a plugin to both &lt;a href=&quot;https://github.com/secdec/attack-surface-detector-zap/wiki&quot;&gt;ZAP&lt;/a&gt; and &lt;a href=&quot;https://github.com/secdec/attack-surface-detector-burp/wiki&quot;&gt;Burp Suite&lt;/a&gt;.&lt;/p&gt;&lt;p&gt;Tools: &lt;a href=&quot;https://www.zaproxy.org/&quot;&gt;OWASP ZAP&lt;/a&gt;, &lt;a href=&quot;https://www.portswigger.net/burp/&quot;&gt;Burp Suite&lt;/a&gt;, &lt;a href=&quot;https://www.telerik.com/fiddler&quot;&gt;Fiddler&lt;/a&gt;,&amp;nbsp;&lt;a href=&quot;https://owasp.org/www-project-attack-surface-detector/&quot;&gt;OWASP Attack Surface Detector&lt;/a&gt;, &lt;a href=&quot;https://datatracker.ietf.org/doc/html/rfc2616&quot;&gt;RFC 2616 - HTTP&lt;/a&gt;.&lt;/p&gt;" style="text;html=1;overflow=hidden;rounded=0;strokeColor=default;whiteSpace=wrap;fontFamily=Times New Roman;" parent="1" vertex="1">
          <mxGeometry x="40" y="4000" width="400" height="800" as="geometry" />
        </mxCell>
        <mxCell id="kxqWSQLsrTnDQ2H8gNHa-2" value="&lt;h1 style=&quot;margin-top: 0px;&quot;&gt;WSTG-INFO-07&lt;/h1&gt;&lt;h1 style=&quot;margin-top: 0px;&quot;&gt;Map Execution Paths Through Application&lt;/h1&gt;&lt;p&gt;Completely understand the structure of the application, before commencing security testing.&lt;/p&gt;&lt;hr id=&quot;null&quot;&gt;&lt;p&gt;Map the target application and understand the principal workflows.&lt;/p&gt;&lt;hr id=&quot;null&quot;&gt;&lt;p&gt;There are several ways to approach the testing and measurement of code coverage:&lt;br&gt;&lt;b&gt;Path&lt;/b&gt; -&amp;nbsp;test each of the paths through an application that includes combinatorial and boundary value analysis testing for each decision path.&lt;br&gt;&lt;b&gt;Data Flow&amp;nbsp;(or Taint Analysis)&lt;/b&gt; -&amp;nbsp;tests the assignment of variables via external interaction (normally users). Focuses on mapping the flow, transformation and use of data throughout an application.&lt;br&gt;&lt;b&gt;Race&lt;/b&gt; -&amp;nbsp;tests multiple concurrent instances of the application manipulating the same data.&lt;br&gt;&lt;/p&gt;&lt;p&gt;&lt;b&gt;Code Review&lt;/b&gt;:&lt;br&gt;&lt;/p&gt;&lt;p&gt;Typical for gray-box and white-box approach to testing.&lt;br&gt;&lt;/p&gt;&lt;p&gt;DAST tools can facilitate the use of a web server agent.&lt;br&gt;&lt;/p&gt;&lt;p&gt;&lt;b&gt;Automatic Spidering&lt;/b&gt;:&lt;br&gt;&lt;/p&gt;&lt;p&gt;These tools are used to automatically discover new resources (URLs) on a particular website (&lt;a href=&quot;https://www.zaproxy.org/docs/desktop/start/features/spider/&quot;&gt;Spider&lt;/a&gt;, &lt;a href=&quot;https://www.zaproxy.org/docs/desktop/addons/ajax-spider/&quot;&gt;AJAX Spider&lt;/a&gt;, &lt;a href=&quot;https://www.zaproxy.org/docs/desktop/addons/openapi-support/&quot;&gt;OpenAPI&lt;/a&gt; modes).&lt;br&gt;&lt;/p&gt;&lt;p&gt;Tools: &lt;a href=&quot;https://github.com/zaproxy/zaproxy&quot;&gt;ZAP&lt;/a&gt;, &lt;a href=&quot;https://en.wikipedia.org/wiki/List_of_spreadsheet_software&quot;&gt;speadsheet software&lt;/a&gt;, &lt;a href=&quot;https://en.wikipedia.org/wiki/List_of_concept-_and_mind-mapping_software&quot;&gt;diagramming software&lt;/a&gt;.&lt;/p&gt;" style="text;html=1;overflow=hidden;rounded=0;strokeColor=default;whiteSpace=wrap;fontFamily=Times New Roman;" parent="1" vertex="1">
          <mxGeometry x="40" y="4800" width="400" height="540" as="geometry" />
        </mxCell>
        <mxCell id="121xtI7DQUFuoj_CItQ1-1" value="&lt;h1 style=&quot;margin-top: 0px;&quot;&gt;WSTG-INFO-08&lt;/h1&gt;&lt;h1 style=&quot;margin-top: 0px;&quot;&gt;Fingerprint Web Application Framework&lt;/h1&gt;&lt;p&gt;Well known web application components have known HTML headers, cookies, and directory structures that can be enumerated to identify the application.&lt;br&gt;&lt;/p&gt;&lt;hr id=&quot;null&quot;&gt;&lt;p&gt;Fingerprint the components being used by the web applications.&lt;br&gt;&lt;/p&gt;&lt;hr id=&quot;null&quot;&gt;&lt;p&gt;&lt;b&gt;HTTP headers&lt;/b&gt;: carefully inspect every HTTP-header for framework name and version leaks (&lt;i&gt;X-Powered-By&lt;/i&gt;, &lt;i&gt;X-Generator&lt;/i&gt;).&lt;/p&gt;&lt;p&gt;&lt;b&gt;Cookies&lt;/b&gt;: look for common cookie names in Cookies section (&lt;i&gt;CAKEPHP&lt;/i&gt;).&lt;/p&gt;&lt;p&gt;&lt;b&gt;HTML source code&lt;/b&gt;:&amp;nbsp;find certain patterns in the HTML page source code (HTML comments, certain framework-specific paths, specific script variables, &amp;lt;head&amp;gt; section of HTTP responses, &amp;lt;meta&amp;gt; tags, end of page).&lt;/p&gt;&lt;p&gt;&lt;b&gt;Specific files and folders&lt;/b&gt;:&amp;nbsp;dirbusting (brute forcing a target with known folder and filenames and monitoring HTTP-responses to enumerate server content),&amp;nbsp;check the &lt;i&gt;robots.txt&lt;/i&gt;, use vocabularies (&lt;a href=&quot;https://github.com/fuzzdb-project/fuzzdb&quot;&gt;FuzzDB&lt;/a&gt;).&lt;/p&gt;&lt;p&gt;&lt;b&gt;File extensions&lt;/b&gt;: check&amp;nbsp;file extensions in&amp;nbsp;URLs (&quot;.php&quot;, &quot;.aspx&quot;, &quot;.jsp&quot;).&lt;/p&gt;&lt;p&gt;&lt;b&gt;Error messages&lt;/b&gt;: check the system path points and other leaks.&lt;/p&gt;&lt;p&gt;Modifying/hiding such a parameters is a&amp;nbsp;“security through obscurity”.&lt;/p&gt;&lt;p&gt;Tools:&amp;nbsp;&lt;a href=&quot;https://github.com/urbanadventurer/WhatWeb&quot;&gt;WhatWeb&lt;/a&gt;,&amp;nbsp;&lt;a href=&quot;https://www.wappalyzer.com/&quot;&gt;Wappalyzer&lt;/a&gt;.&lt;/p&gt;" style="text;html=1;overflow=hidden;rounded=0;strokeColor=default;whiteSpace=wrap;fontFamily=Times New Roman;" parent="1" vertex="1">
          <mxGeometry x="40" y="5340" width="400" height="520" as="geometry" />
        </mxCell>
        <mxCell id="BLCWNIVHLjBfTySb7dGb-1" value="&lt;h1 style=&quot;margin-top: 0px;&quot;&gt;WSTG-INFO-09&lt;/h1&gt;&lt;h1 style=&quot;margin-top: 0px;&quot;&gt;Fingerprint Web Application&lt;/h1&gt;&lt;p&gt;Merged into &lt;b&gt;WSTG-INFO-08&lt;/b&gt;.&lt;/p&gt;" style="text;html=1;overflow=hidden;rounded=0;strokeColor=default;whiteSpace=wrap;fontFamily=Times New Roman;" parent="1" vertex="1">
          <mxGeometry x="40" y="5860" width="400" height="120" as="geometry" />
        </mxCell>
        <mxCell id="BLCWNIVHLjBfTySb7dGb-2" value="&lt;h1 style=&quot;margin-top: 0px;&quot;&gt;WSTG-INFO-10&lt;/h1&gt;&lt;h1 style=&quot;margin-top: 0px;&quot;&gt;Map Application Architecture&lt;/h1&gt;&lt;p&gt;&lt;span style=&quot;background-color: transparent;&quot;&gt;Before performing an in-depth review it is necessary to map the network and application architecture. The different elements that make up the infrastructure need to be determined to understand how they interact with a web application and how they affect security.&lt;/span&gt;&lt;/p&gt;&lt;hr id=&quot;null&quot;&gt;&lt;p&gt;Generate a map of the application at hand based on the research conducted.&lt;/p&gt;&lt;hr id=&quot;null&quot;&gt;&lt;p&gt;Go from simple to complex structure.&lt;/p&gt;&lt;p&gt;Combine with other &lt;b&gt;WSTG-INFO-**&lt;/b&gt; instructions.&lt;/p&gt;&lt;p&gt;Find servers, proxies, load-balancers, proxy-caches, backend-servers, authentication servers, databases.&lt;/p&gt;" style="text;html=1;overflow=hidden;rounded=0;strokeColor=default;whiteSpace=wrap;fontFamily=Times New Roman;" parent="1" vertex="1">
          <mxGeometry x="40" y="5980" width="400" height="320" as="geometry" />
        </mxCell>
        <mxCell id="Xtgh9ku97yeF3pHVwmKX-1" value="&lt;h1 style=&quot;margin-top: 0px;&quot;&gt;01. Information Gathering&lt;/h1&gt;" style="text;html=1;overflow=hidden;rounded=0;strokeColor=default;whiteSpace=wrap;fontFamily=Times New Roman;" parent="1" vertex="1">
          <mxGeometry x="40" y="40" width="400" height="40" as="geometry" />
        </mxCell>
        <mxCell id="vnCINJZAg8eJKPkLlaBq-1" value="&lt;h1 style=&quot;margin-top: 0px;&quot;&gt;02. CFG &amp;amp; Deploy MGMT Testing&lt;/h1&gt;" style="text;html=1;overflow=hidden;rounded=0;strokeColor=default;whiteSpace=wrap;fontFamily=Times New Roman;fontSize=12;" parent="1" vertex="1">
          <mxGeometry x="440" y="40" width="400" height="40" as="geometry" />
        </mxCell>
        <mxCell id="vnCINJZAg8eJKPkLlaBq-2" value="&lt;h1 style=&quot;margin-top: 0px;&quot;&gt;03. Identity Management Testing&lt;/h1&gt;" style="text;html=1;overflow=hidden;rounded=0;strokeColor=default;whiteSpace=wrap;fontFamily=Times New Roman;" parent="1" vertex="1">
          <mxGeometry x="840" y="40" width="400" height="40" as="geometry" />
        </mxCell>
        <mxCell id="vnCINJZAg8eJKPkLlaBq-3" value="&lt;h1 style=&quot;margin-top: 0px;&quot;&gt;04. Authentication Testing&lt;/h1&gt;" style="text;html=1;overflow=hidden;rounded=0;strokeColor=default;whiteSpace=wrap;fontFamily=Times New Roman;" parent="1" vertex="1">
          <mxGeometry x="1240" y="40" width="400" height="40" as="geometry" />
        </mxCell>
        <mxCell id="vnCINJZAg8eJKPkLlaBq-4" value="&lt;h1 style=&quot;margin-top: 0px;&quot;&gt;05. Authorization Testing&lt;/h1&gt;" style="text;html=1;overflow=hidden;rounded=0;strokeColor=default;whiteSpace=wrap;fontFamily=Times New Roman;" parent="1" vertex="1">
          <mxGeometry x="1640" y="40" width="400" height="40" as="geometry" />
        </mxCell>
        <mxCell id="e2LGitZVtsBYH8VqKQJQ-1" value="&lt;h1 style=&quot;margin-top: 0px;&quot;&gt;06. Session Management Testing&lt;/h1&gt;" style="text;html=1;overflow=hidden;rounded=0;strokeColor=default;whiteSpace=wrap;fontFamily=Times New Roman;" parent="1" vertex="1">
          <mxGeometry x="2040" y="40" width="400" height="40" as="geometry" />
        </mxCell>
        <mxCell id="e2LGitZVtsBYH8VqKQJQ-2" value="&lt;h1 style=&quot;margin-top: 0px;&quot;&gt;07. Input Validation Testing&lt;/h1&gt;" style="text;html=1;overflow=hidden;rounded=0;strokeColor=default;whiteSpace=wrap;fontFamily=Times New Roman;" parent="1" vertex="1">
          <mxGeometry x="2440" y="40" width="400" height="40" as="geometry" />
        </mxCell>
        <mxCell id="5YzgcKyQua0hDtOVWHvY-1" value="&lt;h1 style=&quot;margin-top: 0px;&quot;&gt;08. Error Handling&lt;/h1&gt;" style="text;html=1;overflow=hidden;rounded=0;strokeColor=default;whiteSpace=wrap;fontFamily=Times New Roman;" parent="1" vertex="1">
          <mxGeometry x="2840" y="40" width="400" height="40" as="geometry" />
        </mxCell>
        <mxCell id="5YzgcKyQua0hDtOVWHvY-2" value="&lt;h1 style=&quot;margin-top: 0px;&quot;&gt;09. Cryptography&lt;/h1&gt;" style="text;html=1;overflow=hidden;rounded=0;strokeColor=default;whiteSpace=wrap;fontFamily=Times New Roman;" parent="1" vertex="1">
          <mxGeometry x="3240" y="40" width="400" height="40" as="geometry" />
        </mxCell>
        <mxCell id="5YzgcKyQua0hDtOVWHvY-3" value="&lt;h1 style=&quot;margin-top: 0px;&quot;&gt;10. Business Logic Testing&lt;/h1&gt;" style="text;html=1;overflow=hidden;rounded=0;strokeColor=default;whiteSpace=wrap;fontFamily=Times New Roman;" parent="1" vertex="1">
          <mxGeometry x="3640" y="40" width="400" height="40" as="geometry" />
        </mxCell>
        <mxCell id="5YzgcKyQua0hDtOVWHvY-4" value="&lt;h1 style=&quot;margin-top: 0px;&quot;&gt;11. Client-side Testing&lt;/h1&gt;" style="text;html=1;overflow=hidden;rounded=0;strokeColor=default;whiteSpace=wrap;fontFamily=Times New Roman;" parent="1" vertex="1">
          <mxGeometry x="4040" y="40" width="400" height="40" as="geometry" />
        </mxCell>
        <mxCell id="5YzgcKyQua0hDtOVWHvY-5" value="&lt;h1 style=&quot;margin-top: 0px;&quot;&gt;12. API Testing&lt;/h1&gt;" style="text;html=1;overflow=hidden;rounded=0;strokeColor=default;whiteSpace=wrap;fontFamily=Times New Roman;" parent="1" vertex="1">
          <mxGeometry x="4440" y="40" width="400" height="40" as="geometry" />
        </mxCell>
        <mxCell id="Ji4hziP3PQ5C6nk72wQw-1" value="&lt;h1 style=&quot;margin-top: 0px;&quot;&gt;WSTG-CONF-01&lt;/h1&gt;&lt;h1 style=&quot;margin-top: 0px;&quot;&gt;Test Network Infrastructure Configuration&lt;/h1&gt;&lt;p&gt;After having mapped the different infrastructure elements (&lt;b&gt;WSTG-INFO-10&lt;/b&gt;) review the configuration of each element founded and test for any known vulnerabilities.&lt;/p&gt;&lt;hr id=&quot;null&quot;&gt;&lt;p&gt;Review the applications’ configurations set across the network and validate that they are not vulnerable.&lt;/p&gt;&lt;p&gt;Validate that used frameworks and systems are secure and not susceptible to known vulnerabilities due to unmaintained software or default settings and credentials&lt;/p&gt;&lt;hr id=&quot;null&quot;&gt;&lt;p&gt;Use an automated tools for&amp;nbsp;blind penetration test and known vulnerabilities searching.&lt;/p&gt;&lt;p&gt;Check and test defaults (logins, passwords, tokens, etc).&lt;/p&gt;&lt;p&gt;Map administrative tools interfaces with&amp;nbsp;infrastructure elements.&lt;/p&gt;&lt;p&gt;Determine the mechanisms that control access to these interfaces and their associated susceptibilities.&lt;/p&gt;" style="text;html=1;overflow=hidden;rounded=0;strokeColor=default;whiteSpace=wrap;fontFamily=Times New Roman;" parent="1" vertex="1">
          <mxGeometry x="440" y="80" width="400" height="440" as="geometry" />
        </mxCell>
        <mxCell id="7fymIb3-kL573B4DB6dZ-1" value="&lt;h1 style=&quot;margin-top: 0px;&quot;&gt;WSTG-CONF-02&lt;/h1&gt;&lt;h1 style=&quot;margin-top: 0px;&quot;&gt;Test Application Platform Configuration&lt;/h1&gt;&lt;p&gt;Configuration review and testing is a critical task in creating and maintaining an architecture.&lt;br&gt;&lt;/p&gt;&lt;hr id=&quot;null&quot;&gt;&lt;p&gt;Ensure that defaults and known files have been removed.&lt;/p&gt;&lt;p&gt;Validate that no debugging code or extensions are left in the production environments.&lt;br&gt;&lt;/p&gt;&lt;p&gt;Review the logging mechanisms set in place for the application.&lt;br&gt;&lt;/p&gt;&lt;hr id=&quot;null&quot;&gt;&lt;p&gt;Do a full review of the contents of the web or application server and determine of whether they are related to the application itself or not.&lt;br&gt;&lt;/p&gt;&lt;p&gt;Do a comment reiew to prevent sensitive information leaks.&lt;/p&gt;&lt;p&gt;Various tools (&lt;a href=&quot;https://www.cisecurity.org/blog/introducing-cis-cat-lite/&quot;&gt;CIS-CAT Lite&lt;/a&gt;, &lt;a href=&quot;https://github.com/microsoft/AttackSurfaceAnalyzer&quot;&gt;Microsoft’s Attack Surface Analyzer&lt;/a&gt;), documents (&lt;a href=&quot;https://www.pcisecuritystandards.org/document_library&quot;&gt;PCI DSS&lt;/a&gt;), or checklists (&lt;a href=&quot;https://nvd.nist.gov/ncp/repository&quot;&gt;NIST’s National Checklist Program&lt;/a&gt;, &lt;a href=&quot;https://cheatsheetseries.owasp.org/index.html&quot;&gt;OWASP Cheat Sheet Series&lt;/a&gt;) can help to assess&amp;nbsp;target systems’ conformance to various configuration baselines or benchmarks.&lt;br&gt;&lt;/p&gt;&lt;p&gt;Check the server errors (40x or 50x) for sensitive information leaks (it should be&amp;nbsp; handled with custom-made pages).&lt;br&gt;&lt;/p&gt;&lt;p&gt;Check account privileges set (Run servers&amp;nbsp;with minimized privileges in the operating system).&lt;/p&gt;&lt;p&gt;Check security events for both success and fail operations.&lt;/p&gt;&lt;p&gt;Check dedicated storage for security events.&lt;/p&gt;&lt;p&gt;Check role model in case of access to security events storage.&lt;/p&gt;&lt;p&gt;Check events backup and rotation rules, retention period.&amp;nbsp;&lt;/p&gt;" style="text;html=1;overflow=hidden;rounded=0;strokeColor=default;whiteSpace=wrap;fontFamily=Times New Roman;" parent="1" vertex="1">
          <mxGeometry x="440" y="520" width="400" height="600" as="geometry" />
        </mxCell>
        <mxCell id="u0_Dg34OVsO6wt9TMe---1" value="&lt;h1 style=&quot;margin-top: 0px;&quot;&gt;WSTG-CONF-03&lt;/h1&gt;&lt;h1 style=&quot;margin-top: 0px;&quot;&gt;Test File Extensions Handling for Sensitive Information&lt;/h1&gt;&lt;p&gt;Extension checking is often used to validate files to be uploaded, which can lead to unexpected results because the content is not what is expected, or because of unexpected OS filename handling.&lt;/p&gt;&lt;hr id=&quot;null&quot;&gt;&lt;p&gt;Dirbust sensitive file extensions, or extensions that might contain raw data (e.g. scripts, raw data, credentials, etc.).&lt;/p&gt;&lt;p&gt;Validate that no system framework bypasses exist on the rules set.&lt;/p&gt;&lt;hr id=&quot;null&quot;&gt;&lt;p&gt;Submit requests with different file extensions and verify how they are handled.&lt;br&gt;&lt;/p&gt;&lt;p&gt;Check&amp;nbsp;file extensions never being returned by a web server (&quot;&lt;i&gt;*.inc&lt;/i&gt;&quot;, &quot;&lt;i&gt;*.config&lt;/i&gt;&quot;).&lt;/p&gt;&lt;p&gt;Check file extensions to verify that they&amp;nbsp;are indeed supposed to be served (archives, sources, text and other office docs, backups, etc).&lt;/p&gt;&lt;p&gt;Use &lt;a href=&quot;https://filext.com/&quot;&gt;FILExt&lt;/a&gt; to create whitelist of served extensions.&lt;/p&gt;" style="text;html=1;overflow=hidden;rounded=0;strokeColor=default;whiteSpace=wrap;fontFamily=Times New Roman;" parent="1" vertex="1">
          <mxGeometry x="440" y="1120" width="400" height="420" as="geometry" />
        </mxCell>
        <mxCell id="1LXz438L5iuRgMA5hW5X-1" value="&lt;h1 style=&quot;margin-top: 0px;&quot;&gt;WSTG-CONF-04&lt;/h1&gt;&lt;h1 style=&quot;margin-top: 0px;&quot;&gt;Review Old Backup and Unreferenced Files for Sensitive Information&lt;/h1&gt;&lt;p&gt;Old, backup and unreferenced files present various threats to the security of a web application.&lt;br&gt;&lt;/p&gt;&lt;hr id=&quot;null&quot;&gt;&lt;p&gt;Inference from the Naming Scheme Used for Published Content (&quot;&lt;i&gt;&lt;b&gt;view&lt;/b&gt;user.asp&quot;&lt;/i&gt; -&amp;gt; &quot;&lt;i&gt;&lt;b&gt;edit&lt;/b&gt;user.asp&quot;&lt;/i&gt;/&quot;&lt;i&gt;&lt;b&gt;add&lt;/b&gt;user.asp&quot;&lt;/i&gt;/&quot;&lt;b style=&quot;font-style: italic;&quot;&gt;delete&lt;/b&gt;&lt;i&gt;user.asp&quot;&lt;/i&gt;, &quot;&lt;span style=&quot;background-color: transparent;&quot;&gt;&lt;i&gt;/app/&lt;b&gt;user&lt;/b&gt;&quot; -&amp;gt; &quot;&lt;/i&gt;&lt;/span&gt;&lt;span style=&quot;background-color: transparent;&quot;&gt;&lt;i&gt;/app/&lt;b&gt;admin&lt;/b&gt;&quot;/&quot;&lt;/i&gt;&lt;/span&gt;&lt;span style=&quot;background-color: transparent;&quot;&gt;&lt;i&gt;/app/&lt;b&gt;manager&lt;/b&gt;&quot;&lt;/i&gt;&lt;/span&gt;&lt;span style=&quot;background-color: transparent;&quot;&gt;).&lt;/span&gt;&lt;/p&gt;&lt;p&gt;&lt;span style=&quot;background-color: transparent;&quot;&gt;Clues in Published Content (hidden pages in comments,&amp;nbsp;&lt;/span&gt;&lt;span style=&quot;background-color: transparent;&quot;&gt;circumstances,&amp;nbsp;&lt;/span&gt;&lt;span style=&quot;background-color: transparent;&quot;&gt;robots.txt&lt;/span&gt;&lt;span style=&quot;background-color: transparent;&quot;&gt;).&lt;/span&gt;&lt;/p&gt;&lt;p&gt;&lt;span style=&quot;background-color: transparent;&quot;&gt;Blind Guessing (dirbust URL parameters and check HTTP response codes (200, 301, 302, 401, 403, 500), prepare custom wordlist derived from other techniques findings).&lt;br&gt;&lt;/span&gt;&lt;/p&gt;&lt;p&gt;&lt;span style=&quot;background-color: transparent;&quot;&gt;Information Obtained Through Server Vulnerabilities and Misconfiguration (try to use known server vulnerabilities and PoCs).&lt;br&gt;&lt;/span&gt;&lt;/p&gt;&lt;p&gt;&lt;span style=&quot;background-color: transparent;&quot;&gt;Publicly Available Information (web&amp;nbsp;&lt;/span&gt;&lt;span style=&quot;background-color: transparent;&quot;&gt;archives, search operators,&amp;nbsp;&lt;/span&gt;&lt;span style=&quot;background-color: transparent;&quot;&gt;cached versions of pages&lt;/span&gt;&lt;span style=&quot;background-color: transparent;&quot;&gt;).&lt;/span&gt;&lt;/p&gt;&lt;p&gt;&lt;span style=&quot;background-color: transparent;&quot;&gt;Exploit differences in ways that filenames are parsed by the application, web server, and underlying OS and it’s filename conventions (&quot;&lt;/span&gt;&lt;span style=&quot;background-color: transparent;&quot;&gt;&lt;i&gt;&lt;b&gt;c:\\progra&lt;/b&gt;m files&lt;/i&gt;&quot; -&amp;gt; &quot;&lt;/span&gt;&lt;span style=&quot;background-color: transparent;&quot;&gt;&lt;i&gt;&lt;b&gt;C:\\PROGRA&lt;/b&gt;\~1&lt;/i&gt;&quot;&lt;/span&gt;&lt;span style=&quot;background-color: transparent;&quot;&gt;).&lt;/span&gt;&lt;/p&gt;&lt;p&gt;&lt;span style=&quot;background-color: transparent;&quot;&gt;Periodically schedule a background job checking for files with extensions likely to identify them as copy or backup files&amp;nbsp;&lt;/span&gt;&lt;span style=&quot;background-color: transparent;&quot;&gt;in the directories from the set of web directories served by the web server,&lt;/span&gt;&lt;span style=&quot;background-color: transparent;&quot;&gt;&amp;nbsp;performing manual checks on a longer time basis (&quot;&lt;i&gt;.old&lt;/i&gt;&quot;, &quot;&lt;i&gt;.bak&lt;/i&gt;&quot;, &quot;&lt;i&gt;.backup&lt;/i&gt;&quot;).&lt;/span&gt;&lt;span style=&quot;background-color: transparent;&quot;&gt;&lt;br&gt;&lt;/span&gt;&lt;/p&gt;&lt;hr id=&quot;null&quot;&gt;&lt;p&gt;Don&#39;t edit files in-place on the web server or application server file systems.&lt;/p&gt;&lt;p&gt;Carefully check any activity performed on file systems exposed by the web server (spot administration activities).&lt;br&gt;&lt;/p&gt;&lt;p&gt;Use appropriate configuration management policies.&lt;br&gt;&lt;/p&gt;&lt;p&gt;Application shouldn&#39;t work with data under the web directory trees served by the web server.&lt;/p&gt;&lt;p&gt;Deny access to folders with filesystem snapshots.&lt;br&gt;&lt;/p&gt;&lt;p&gt;Tools: &lt;a href=&quot;https://www.tenable.com/products/nessus&quot;&gt;Nessus&lt;/a&gt;, &lt;a href=&quot;https://cirt.net/Nikto2&quot;&gt;Nikto2&lt;/a&gt;, &lt;a href=&quot;https://www.gnu.org/software/wget/&quot;&gt;wget&lt;/a&gt;, &lt;a href=&quot;https://curl.haxx.se/&quot;&gt;curl&lt;/a&gt;,&amp;nbsp;&lt;a href=&quot;https://web.archive.org/web/20090926061558/http://preview.samspade.org/ssw/download.html&quot;&gt;Sam Spade&lt;/a&gt;, &lt;a href=&quot;https://www.spikeproxy.com/&quot;&gt;Spike&lt;/a&gt;, &lt;a href=&quot;http://home.snafu.de/tilman/xenulink.html&quot;&gt;Xenu&lt;/a&gt;.&lt;/p&gt;" style="text;html=1;overflow=hidden;rounded=0;strokeColor=default;whiteSpace=wrap;fontFamily=Times New Roman;" parent="1" vertex="1">
          <mxGeometry x="440" y="1540" width="400" height="800" as="geometry" />
        </mxCell>
        <mxCell id="Zty-geitHG_htesr6zDO-1" value="&lt;h1 style=&quot;margin-top: 0px;&quot;&gt;WSTG-CONF-05&lt;/h1&gt;&lt;h1 style=&quot;margin-top: 0px;&quot;&gt;Enumerate Infrastructure and Application Admin Interfaces&lt;/h1&gt;&lt;p&gt;An application may require an administrator interface to enable a privileged user to access functionality that may make changes to how the site functions&lt;br&gt;&lt;/p&gt;&lt;hr id=&quot;null&quot;&gt;&lt;p&gt;Identify hidden administrator interfaces and functionality.&lt;br&gt;&lt;/p&gt;&lt;hr id=&quot;null&quot;&gt;&lt;p&gt;Attempt to guess the path of the administrative interface (&quot;&lt;i&gt;/admin&lt;/i&gt;&quot;, &quot;&lt;i&gt;/administrator&lt;/i&gt;&quot;).&lt;br&gt;&lt;/p&gt;&lt;p&gt;Brute force of server contents via tools.&lt;br&gt;&lt;/p&gt;&lt;p&gt;Review comments and links in source code.&lt;br&gt;&lt;/p&gt;&lt;p&gt;Review server and application documentation or publicly available information (default values).&lt;/p&gt;&lt;p&gt;Check alternative server port (Apache Tomcat’s Administration interface on port 8080).&lt;br&gt;&lt;/p&gt;&lt;p&gt;Parameter tampering of&amp;nbsp;GET or POST request parameter or a cookie variable (&quot;&lt;i&gt;&amp;lt;input type=&quot;hidden&quot; name=&quot;admin&quot; value=&quot;no&quot;&amp;gt;&lt;/i&gt;&quot;, &quot;&lt;i&gt;Cookie: session_cookie; useradmin=0&lt;/i&gt;&quot;).&lt;/p&gt;&lt;p&gt;Tools: &lt;a href=&quot;https://www.zaproxy.org/docs/desktop/addons/forced-browse/&quot;&gt;OWASP ZAP&lt;/a&gt;, &lt;a href=&quot;https://github.com/vanhauser-thc/thc-hydra&quot;&gt;THC-Hydra&lt;/a&gt;, &lt;a href=&quot;https://github.com/fuzzdb-project/fuzzdb&quot;&gt;FuzzDB&lt;/a&gt;&amp;nbsp;(&lt;a href=&quot;https://github.com/fuzzdb-project/fuzzdb/blob/master/discovery/predictable-filepaths/login-file-locations/Logins.txt&quot;&gt;login pages&lt;/a&gt; and &lt;a href=&quot;https://github.com/fuzzdb-project/fuzzdb/blob/master/attack/business-logic/CommonDebugParamNames.txt&quot;&gt;common debug parameters&lt;/a&gt; dictionaries),&amp;nbsp;&lt;a href=&quot;https://www.netsparker.com/blog/web-security/svn-digger-better-lists-for-forced-browsing/&quot;&gt;Netsparker dictionary&lt;/a&gt;, &lt;a href=&quot;https://cirt.net/passwords&quot;&gt;Cirt: default password list&lt;/a&gt;.&lt;/p&gt;" style="text;html=1;overflow=hidden;rounded=0;strokeColor=default;whiteSpace=wrap;fontFamily=Times New Roman;" parent="1" vertex="1">
          <mxGeometry x="440" y="2340" width="400" height="520" as="geometry" />
        </mxCell>
        <mxCell id="18MrNAwSvhtbDqxyqERw-1" value="&lt;h1 style=&quot;margin-top: 0px;&quot;&gt;WSTG-CONF-06&lt;/h1&gt;&lt;h1 style=&quot;margin-top: 0px;&quot;&gt;Test HTTP Methods&lt;/h1&gt;&lt;p&gt;HTTP allows several other (except classic GET and POST) methods, which can be used for nefarious purposes if the web server is misconfigured.&lt;br&gt;&lt;/p&gt;&lt;hr id=&quot;null&quot;&gt;&lt;p&gt;Discover the Supported Methods (&lt;i&gt;OPTIONS&lt;/i&gt;&amp;nbsp;HTTP request method or&amp;nbsp;&lt;i&gt;http-methods&lt;/i&gt; Nmap script).&lt;br&gt;&lt;/p&gt;&lt;p&gt;Make sure that all endpoints accept only the methods that they require.&lt;br&gt;&lt;/p&gt;&lt;p&gt;Check pages that&amp;nbsp;responds with a &lt;i&gt;HTTP/1.1 200 OK&lt;/i&gt;, when web application&amp;nbsp;has a security constraint, to Access Control Bypass.&lt;/p&gt;&lt;p&gt;Check&amp;nbsp;XST (cross-site tracing) attack vector (&lt;i&gt;TRACE&lt;/i&gt; HTTP request method provide the reflection of the received message back to the client ignoring HttpOnly attribute and leaking users&#39; credentials).&lt;/p&gt;&lt;p&gt;Check the HTTP Method Overriding (&lt;i&gt;X-HTTP-Method&lt;/i&gt;, &lt;i&gt;X-HTTP-Method-Override&lt;/i&gt;, &lt;i&gt;X-Method-Override&lt;/i&gt;&amp;nbsp;headers in several frameworks).&lt;/p&gt;&lt;p&gt;Ensure that only the required headers are allowed, and that the allowed headers are properly configured.&lt;/p&gt;&lt;p&gt;Tools: &lt;a href=&quot;https://nmap.org/ncat/&quot;&gt;Ncat&lt;/a&gt;, &lt;a href=&quot;https://curl.haxx.se/&quot;&gt;cURL&lt;/a&gt;, &lt;a href=&quot;https://nmap.org/nsedoc/scripts/http-methods.html&quot;&gt;http-methods Nmap script&lt;/a&gt;, &lt;a href=&quot;https://capec.mitre.org/data/definitions/107.html&quot;&gt;CAPEC: XST&lt;/a&gt;.&lt;/p&gt;" style="text;html=1;overflow=hidden;rounded=0;strokeColor=default;whiteSpace=wrap;fontFamily=Times New Roman;" parent="1" vertex="1">
          <mxGeometry x="440" y="2860" width="400" height="440" as="geometry" />
        </mxCell>
        <mxCell id="RcGdDZ3HlnkjEXBhJJGQ-1" value="&lt;h1 style=&quot;margin-top: 0px;&quot;&gt;WSTG-CONF-07&lt;/h1&gt;&lt;h1 style=&quot;margin-top: 0px;&quot;&gt;Test HTTP Strict Transport Security&lt;/h1&gt;&lt;p&gt;The HTTP Strict Transport Security (HSTS) feature lets a web application inform the browser through the use of a special response header that it should never establish a connection to the specified domain servers using un-encrypted HTTP.&lt;/p&gt;&lt;p&gt;Verify that the web site is using this HTTP header in order to ensure that all the data travels encrypted between the web browser and the server.&lt;/p&gt;&lt;hr id=&quot;null&quot;&gt;&lt;p&gt;HSTS directives:&lt;/p&gt;&lt;p&gt;&lt;b&gt;max-age&lt;/b&gt; (number of seconds that the browser should automatically convert all HTTP requests to HTTPS);&lt;br&gt;&lt;b&gt;includeSubDomains&lt;/b&gt; (indicate that all related sub-domains must use HTTPS);&lt;br&gt;&lt;b&gt;preload&lt;/b&gt; (indicate that the domain(s) are on the preload list(s) and that browsers should never connect without HTTPS) - unofficial (this is supported by all major browsers but is not official part of the &lt;a href=&quot;https://hstspreload.org/&quot;&gt;specification&lt;/a&gt;).&lt;br&gt;&lt;/p&gt;&lt;p&gt;&lt;i&gt;Strict-Transport-Security: max-age=31536000; includeSubDomains&lt;/i&gt;&lt;/p&gt;&lt;p&gt;The presence of the HSTS header can be confirmed by examining the server’s response through an intercepting proxy or by using curl:&lt;br&gt;&lt;i&gt;curl -s -D- https://owasp.org | grep -i strict&lt;/i&gt;&lt;br&gt;&lt;/p&gt;&lt;p&gt;Tools: &lt;a href=&quot;https://cheatsheetseries.owasp.org/cheatsheets/HTTP_Strict_Transport_Security_Cheat_Sheet.html&quot;&gt;OWASP HSTS&lt;/a&gt;, &lt;a href=&quot;https://www.youtube.com/watch?v=zEV3HOuM_Vw&quot;&gt;OWASP AppSec Tutorials: HSTS&lt;/a&gt;.&lt;/p&gt;&lt;p&gt;&lt;br&gt;&lt;/p&gt;" style="text;html=1;overflow=hidden;rounded=0;strokeColor=default;whiteSpace=wrap;fontFamily=Times New Roman;" parent="1" vertex="1">
          <mxGeometry x="440" y="3300" width="400" height="520" as="geometry" />
        </mxCell>
        <mxCell id="Yyc6e-A1znXQ3ofwlieE-1" value="&lt;h1 style=&quot;margin-top: 0px;&quot;&gt;WSTG-CONF-08&lt;/h1&gt;&lt;h1 style=&quot;margin-top: 0px;&quot;&gt;Test RIA Cross Domain Policy&lt;/h1&gt;&lt;p&gt;Rich Internet Applications (RIA) have adopted Adobe’s crossdomain.xml policy files to allow for controlled cross domain access to data and service consumption using technologies such as Oracle Java, Silverlight, and Adobe Flash.&lt;br&gt;&lt;/p&gt;&lt;p&gt;Often the policy files that describe the access restrictions are poorly configured. Poor configuration of the policy files enables CSRF attacks.&lt;br&gt;&lt;/p&gt;&lt;hr id=&quot;null&quot;&gt;&lt;p&gt;&lt;b&gt;crossdomain.xml&lt;/b&gt; -&amp;nbsp;Java, Adobe Flash, Adobe Reader, etc.&lt;br&gt;&lt;b style=&quot;background-color: transparent;&quot;&gt;clientaccesspolicy.xml&lt;/b&gt;&lt;span style=&quot;background-color: transparent;&quot;&gt; -&amp;nbsp;Silverlight, Microsoft.&lt;/span&gt;&lt;/p&gt;&lt;p&gt;&lt;b&gt;Master policy&lt;/b&gt; files are located at the domain’s root. A client may be instructed to load a &lt;b&gt;different policy&lt;/b&gt; file but it will always check the &lt;b&gt;master policy&lt;/b&gt; file first to ensure that the &lt;b&gt;master policy&lt;/b&gt; file permits the &lt;b&gt;requested policy&lt;/b&gt; file.&lt;br&gt;&lt;/p&gt;&lt;p&gt;Policy files grant several types of permissions:&lt;/p&gt;&lt;p&gt;Accepted policy files (Master policy files can disable or restrict specific policy files);&lt;br&gt;&lt;span style=&quot;background-color: transparent;&quot;&gt;Sockets permissions;&lt;br&gt;&lt;/span&gt;&lt;span style=&quot;background-color: transparent;&quot;&gt;Header permissions;&lt;br&gt;&lt;/span&gt;&lt;span style=&quot;background-color: transparent;&quot;&gt;HTTP/HTTPS access permissions;&lt;br&gt;&lt;/span&gt;&lt;span style=&quot;background-color: transparent;&quot;&gt;Allowing access based on cryptographic credentials.&lt;/span&gt;&lt;/p&gt;&lt;p&gt;Attack vectors:&lt;/p&gt;&lt;p&gt;Overly permissive cross-domain policies.&lt;br&gt;&lt;span style=&quot;background-color: transparent;&quot;&gt;Generating server responses that may be treated as cross-domain policy files.&lt;br&gt;&lt;/span&gt;&lt;span style=&quot;background-color: transparent;&quot;&gt;Using file upload functionality to upload files that may be treated as cross-domain policy files.&lt;/span&gt;&lt;/p&gt;&lt;hr id=&quot;null&quot;&gt;&lt;p&gt;&lt;span style=&quot;background-color: transparent;&quot;&gt;Try to retrieve the policy files crossdomain.xml and clientaccesspolicy.xml from the application’s root, and from every folder found.&lt;/span&gt;&lt;/p&gt;&lt;p&gt;After retrieving all the policy files, the permissions allowed should be be checked under the least privilege principle.&lt;/p&gt;&lt;p&gt;Tools: &lt;a href=&quot;https://www.cirt.net/nikto2&quot;&gt;Nikto&lt;/a&gt;, &lt;a href=&quot;https://www.zaproxy.org&quot;&gt;OWASP ZAP&lt;/a&gt;, &lt;a href=&quot;https://github.com/andresriancho/w3af&quot;&gt;W3af&lt;/a&gt;.&lt;/p&gt;" style="text;html=1;overflow=hidden;rounded=0;strokeColor=default;whiteSpace=wrap;fontFamily=Times New Roman;" parent="1" vertex="1">
          <mxGeometry x="440" y="3820" width="400" height="700" as="geometry" />
        </mxCell>
        <mxCell id="Yyc6e-A1znXQ3ofwlieE-2" value="&lt;h1 style=&quot;margin-top: 0px;&quot;&gt;WSTG-CONF-09&lt;/h1&gt;&lt;h1 style=&quot;margin-top: 0px;&quot;&gt;Test File Permission&lt;/h1&gt;&lt;p&gt;Review and identify any rogue file permissions.&lt;/p&gt;&lt;hr id=&quot;null&quot;&gt;&lt;p&gt;Filetypes to check:&lt;/p&gt;&lt;p&gt;Web files/directory;&lt;br&gt;&lt;span style=&quot;background-color: transparent;&quot;&gt;Configuration files/directory;&lt;br&gt;&lt;/span&gt;&lt;span style=&quot;background-color: transparent;&quot;&gt;Sensitive files (encrypted data, password, key)/directory;&lt;br&gt;&lt;/span&gt;&lt;span style=&quot;background-color: transparent;&quot;&gt;Log files (security logs, operation logs, admin logs)/directory;&lt;br&gt;&lt;/span&gt;&lt;span style=&quot;background-color: transparent;&quot;&gt;Executables (scripts, EXE, JAR, class, PHP, ASP)/directory;&lt;br&gt;&lt;/span&gt;&lt;span style=&quot;background-color: transparent;&quot;&gt;Database files/directory;&lt;br&gt;&lt;/span&gt;&lt;span style=&quot;background-color: transparent;&quot;&gt;Temp files /directory;&lt;br&gt;&lt;/span&gt;&lt;span style=&quot;background-color: transparent;&quot;&gt;Upload files/directory.&lt;/span&gt;&lt;/p&gt;&lt;p&gt;Set the permissions of the files and directories properly so that unauthorized users cannot access critical resources unnecessarily.&lt;/p&gt;&lt;p&gt;Tools:&amp;nbsp;&lt;span style=&quot;background-color: transparent;&quot;&gt;&lt;a href=&quot;https://technet.microsoft.com/en-us/sysinternals/accessenum&quot;&gt;Windows AccessEnum&lt;/a&gt;,&amp;nbsp;&lt;/span&gt;&lt;span style=&quot;background-color: transparent;&quot;&gt;&lt;a href=&quot;https://technet.microsoft.com/en-us/sysinternals/accesschk&quot;&gt;Windows AccessChk&lt;/a&gt;,&amp;nbsp;&lt;/span&gt;&lt;span style=&quot;background-color: transparent;&quot;&gt;&lt;a href=&quot;https://linux.die.net/man/1/namei&quot;&gt;Linux namei&lt;/a&gt;.&lt;/span&gt;&lt;/p&gt;" style="text;html=1;overflow=hidden;rounded=0;strokeColor=default;whiteSpace=wrap;fontFamily=Times New Roman;" parent="1" vertex="1">
          <mxGeometry x="440" y="4520" width="400" height="360" as="geometry" />
        </mxCell>
        <mxCell id="7wN0ui7vxEIaQb5FW4Om-1" value="&lt;h1 style=&quot;margin-top: 0px;&quot;&gt;WSTG-CONF-10&lt;/h1&gt;&lt;h1 style=&quot;margin-top: 0px;&quot;&gt;Test for Subdomain Takeover&lt;/h1&gt;&lt;p&gt;The victim’s external DNS server subdomain record is configured to point to a non-existing or non-active resource/external service/endpoint.&lt;br&gt;&lt;/p&gt;&lt;p&gt;The service provider hosting the resource/external service/endpoint does not handle subdomain ownership verification properly.&lt;br&gt;&lt;/p&gt;&lt;p&gt;If the subdomain takeover is successful a wide variety of attacks are possible (serving malicious content, phising, stealing user session cookies, credentials, etc.).&lt;br&gt;&lt;/p&gt;&lt;hr id=&quot;null&quot;&gt;&lt;p&gt;Enumerate all possible domains (previous and current).&lt;br&gt;&lt;/p&gt;&lt;p&gt;Identify forgotten or misconfigured domains.&lt;/p&gt;&lt;hr id=&quot;null&quot;&gt;&lt;p&gt;To mitigate the risk of subdomain takeover the vulnerable DNS resource record(s) should be removed from the DNS zone.&lt;/p&gt;&lt;p&gt;Continous monitoring and periodic checks are recommended as best practice.&lt;/p&gt;&lt;p&gt;Tools: &lt;a href=&quot;https://linux.die.net/man/1/dig&quot;&gt;dig&lt;/a&gt;, &lt;a href=&quot;https://github.com/lanmaster53/recon-ng&quot;&gt;recon-ng&lt;/a&gt;, &lt;a href=&quot;https://github.com/laramies/theHarvester&quot;&gt;theHarvester&lt;/a&gt;, &lt;a href=&quot;https://github.com/aboul3la/Sublist3r&quot;&gt;Sublist3r&lt;/a&gt;, &lt;a href=&quot;https://github.com/darkoperator/dnsrecon&quot;&gt;dnsrecon&lt;/a&gt;, &lt;a href=&quot;https://github.com/OWASP/Amass&quot;&gt;OWASP Amass&lt;/a&gt;.&lt;/p&gt;" style="text;html=1;overflow=hidden;rounded=0;strokeColor=default;whiteSpace=wrap;fontFamily=Times New Roman;" vertex="1" parent="1">
          <mxGeometry x="440" y="4880" width="400" height="440" as="geometry" />
        </mxCell>
        <mxCell id="7wN0ui7vxEIaQb5FW4Om-2" value="&lt;h1 style=&quot;margin-top: 0px;&quot;&gt;WSTG-CONF-11&lt;/h1&gt;&lt;h1 style=&quot;margin-top: 0px;&quot;&gt;Test Cloud Storage&lt;/h1&gt;&lt;p&gt;Improper access control configuration, however, may result in sensitive information exposure, data being tampered, or unauthorized access.&lt;/p&gt;&lt;hr id=&quot;null&quot;&gt;&lt;p&gt;Assess that the access control configuration for the storage services is properly in place.&lt;/p&gt;&lt;hr id=&quot;null&quot;&gt;&lt;p&gt;First identify the URL to access the data in the storage service, and then consider the following tests:&lt;/p&gt;&lt;p&gt;&lt;b&gt;read&lt;/b&gt; the unauthorized data (&lt;i&gt;curl -X GET https://&amp;lt;cloud-storage-service&amp;gt;/&amp;lt;object&amp;gt;&lt;/i&gt;);&lt;br&gt;&lt;span style=&quot;background-color: transparent;&quot;&gt;&lt;b&gt;upload&lt;/b&gt; a new arbitrary file (&lt;/span&gt;&lt;span style=&quot;background-color: transparent;&quot;&gt;&lt;i&gt;curl -X PUT -d &#39;test&#39; &#39;https://&amp;lt;cloud-storage-service&amp;gt;/test.txt&#39;&lt;/i&gt;&lt;/span&gt;&lt;span style=&quot;background-color: transparent;&quot;&gt;).&lt;/span&gt;&lt;/p&gt;" style="text;html=1;overflow=hidden;rounded=0;strokeColor=default;whiteSpace=wrap;fontFamily=Times New Roman;" vertex="1" parent="1">
          <mxGeometry x="440" y="5320" width="400" height="320" as="geometry" />
        </mxCell>
      </root>
    </mxGraphModel>
  </diagram>
</mxfile>
